<svg xmlns="http://www.w3.org/2000/svg" viewBox="0 0 180 180" fill="none">
  <defs>
    <linearGradient id="bg" x1="24" y1="12" x2="156" y2="168" gradientUnits="userSpaceOnUse">
      <stop stop-color="#1b1b1b" />
      <stop offset="1" stop-color="#0f0f0f" />
    </linearGradient>
    <linearGradient id="g" x1="40" y1="32" x2="140" y2="144" gradientUnits="userSpaceOnUse">
      <stop stop-color="#f4f4f4" />
      <stop offset="1" stop-color="#cfcfcf" />
    </linearGradient>
  </defs>
  <rect x="8" y="8" width="164" height="164" rx="42" fill="url(#bg)" />
  <path
    d="M107.7 67c-4-4-9.4-6.2-16.6-6.2-15.9 0-26.6 11.4-26.6 30 0 18.5 10.4 29.8 26.2 29.8 9.8 0 16.8-3.6 21.4-10.1v-10.7H95.5V87.6h32.4v34.8c-8.4 12.1-20.6 18.2-36.7 18.2-28.3 0-46.3-17.8-46.3-46.6 0-29.2 18.6-46.5 46.2-46.5 15.8 0 27.9 5.8 35.5 16.1L107.7 67Z"
    fill="url(#g)"
  />
</svg>
