<svg xmlns="http://www.w3.org/2000/svg" viewBox="0 0 48 48" fill="none">
  <defs>
    <linearGradient id="bg" x1="8" y1="4" x2="40" y2="44" gradientUnits="userSpaceOnUse">
      <stop stop-color="#1b1b1b" />
      <stop offset="1" stop-color="#0f0f0f" />
    </linearGradient>
    <linearGradient id="g" x1="12" y1="10" x2="36" y2="38" gradientUnits="userSpaceOnUse">
      <stop stop-color="#f4f4f4" />
      <stop offset="1" stop-color="#cfcfcf" />
    </linearGradient>
  </defs>
  <rect x="2" y="2" width="44" height="44" rx="12" fill="url(#bg)" />
  <path
    d="M28.9 17.2c-1.1-1.1-2.6-1.7-4.6-1.7-4.4 0-7.3 3.1-7.3 8.3 0 5.1 2.8 8.2 7.2 8.2 2.7 0 4.6-.9 5.9-2.8v-2.9h-4.6v-4h8.9v9.5c-2.3 3.4-5.7 5.1-10.3 5.1-7.9 0-12.9-5-12.9-13.2 0-8.3 5.2-13.2 12.8-13.2 4.4 0 7.8 1.6 10 4.6l-5.1 2.1Z"
    fill="url(#g)"
  />
</svg>
